<svg width="64" height="64" viewBox="0 0 64 64" fill="none" xmlns="http://www.w3.org/2000/svg">
<path d="M54.6667 30.1335V18.7735C54.6667 8.02685 52.16 5.3335 42.08 5.3335H21.92C11.84 5.3335 9.33337 8.02685 9.33337 18.7735V48.8001C9.33337 55.8935 13.2267 57.5735 17.9467 52.5068L17.9733 52.4801C20.16 50.1601 23.4933 50.3468 25.3867 52.8801L28.08 56.4801" stroke="white" stroke-width="3.5" stroke-linecap="round" stroke-linejoin="round"/>
<path d="M21.3334 18.6665H42.6667" stroke="white" stroke-width="3.5" stroke-linecap="round" stroke-linejoin="round"/>
<path d="M24 29.3335H40" stroke="white" stroke-width="3.5" stroke-linecap="round" stroke-linejoin="round"/>
<path d="M48.5626 39.3874L39.1227 48.8274C38.7494 49.2008 38.4027 49.8941 38.3227 50.4007L37.816 54.0008C37.6293 55.3074 38.536 56.2141 39.8427 56.0275L43.4427 55.5208C43.9494 55.4408 44.6693 55.0941 45.016 54.7207L54.456 45.2808C56.0827 43.6541 56.856 41.7608 54.456 39.3608C52.0827 36.9875 50.1893 37.7607 48.5626 39.3874Z" stroke="white" stroke-width="3.5" stroke-miterlimit="10" stroke-linecap="round" stroke-linejoin="round"/>
<path d="M47.1979 40.7476C47.9979 43.6276 50.2379 45.8676 53.1179 46.6676" stroke="white" stroke-width="3.5" stroke-miterlimit="10" stroke-linecap="round" stroke-linejoin="round"/>
</svg>
