<svg width="20" height="20" viewBox="0 0 20 20" fill="none" xmlns="http://www.w3.org/2000/svg">
<path d="M5.24 0H3.34C1.15 0 0 1.15 0 3.33V5.23C0 7.41 1.15 8.56 3.33 8.56H5.23C7.41 8.56 8.56 7.41 8.56 5.23V3.33C8.57 1.15 7.42 0 5.24 0Z" fill="#C89637"/>
<path opacity="0.6" d="M16.6695 0H14.7695C12.5895 0 11.4395 1.15 11.4395 3.33V5.23C11.4395 7.41 12.5895 8.56 14.7695 8.56H16.6695C18.8495 8.56 19.9995 7.41 19.9995 5.23V3.33C19.9995 1.15 18.8495 0 16.6695 0Z" fill="#C89637"/>
<path d="M16.6695 11.4302H14.7695C12.5895 11.4302 11.4395 12.5802 11.4395 14.7602V16.6602C11.4395 18.8402 12.5895 19.9902 14.7695 19.9902H16.6695C18.8495 19.9902 19.9995 18.8402 19.9995 16.6602V14.7602C19.9995 12.5802 18.8495 11.4302 16.6695 11.4302Z" fill="#C89637"/>
<path opacity="0.6" d="M5.24 11.4302H3.34C1.15 11.4302 0 12.5802 0 14.7602V16.6602C0 18.8502 1.15 20.0002 3.33 20.0002H5.23C7.41 20.0002 8.56 18.8502 8.56 16.6702V14.7702C8.57 12.5802 7.42 11.4302 5.24 11.4302Z" fill="#C89637"/>
</svg>
